<svg xmlns="http://www.w3.org/2000/svg" viewBox="0 0 1080 206" width="1080" height="206" role="img" aria-label="CDR Bank Feed Data Flow"><rect x="1" y="1" width="1078" height="204" rx="16" fill="#f6f9fc" stroke="#d8e2f0"/><text x="540" y="40" text-anchor="middle" fill="#0d2d5c" font-family="Inter,system-ui,sans-serif" font-size="20" font-weight="700">CDR Bank Feed Data Flow</text><rect x="92" y="70" width="188" height="96" rx="12" fill="#ffffff" stroke="#194291" stroke-width="2"/><text x="186" y="123" text-anchor="middle" fill="#0d2d5c" font-family="Inter,system-ui,sans-serif" font-size="16" font-weight="600">Account Holder</text><line x1="280" y1="118.0" x2="318" y2="118.0" stroke="#194291" stroke-width="2"/><path d="M318,113.0 L328,118.0 L318,123.0 Z" fill="#194291"/><text x="304" y="106" text-anchor="middle" fill="#194291" font-family="Inter,system-ui,sans-serif" font-size="13" font-weight="600">grants consent</text><rect x="328" y="70" width="188" height="96" rx="12" fill="#ffffff" stroke="#194291" stroke-width="2"/><text x="422" y="123" text-anchor="middle" fill="#0d2d5c" font-family="Inter,system-ui,sans-serif" font-size="16" font-weight="600">Bank (Data Holder)</text><line x1="516" y1="118.0" x2="554" y2="118.0" stroke="#194291" stroke-width="2"/><path d="M554,113.0 L564,118.0 L554,123.0 Z" fill="#194291"/><text x="540" y="106" text-anchor="middle" fill="#194291" font-family="Inter,system-ui,sans-serif" font-size="13" font-weight="600">shares data via AP</text><rect x="564" y="70" width="188" height="96" rx="12" fill="#ffffff" stroke="#194291" stroke-width="2"/><text x="658" y="112" text-anchor="middle" fill="#0d2d5c" font-family="Inter,system-ui,sans-serif" font-size="16" font-weight="600">Accredited</text><text x="658" y="134" text-anchor="middle" fill="#0d2d5c" font-family="Inter,system-ui,sans-serif" font-size="16" font-weight="600">Recipient</text><line x1="752" y1="118.0" x2="790" y2="118.0" stroke="#194291" stroke-width="2"/><path d="M790,113.0 L800,118.0 L790,123.0 Z" fill="#194291"/><text x="776" y="106" text-anchor="middle" fill="#194291" font-family="Inter,system-ui,sans-serif" font-size="13" font-weight="600">feeds transactions</text><rect x="800" y="70" width="188" height="96" rx="12" fill="#ffffff" stroke="#194291" stroke-width="2"/><text x="894" y="123" text-anchor="middle" fill="#0d2d5c" font-family="Inter,system-ui,sans-serif" font-size="16" font-weight="600">SAE Books Ledger</text></svg>