<svg xmlns="http://www.w3.org/2000/svg" viewBox="0 0 1178 206" width="1178" height="206" role="img" aria-label="CDR Bank Feed Data Flow"><rect x="1" y="1" width="1176" height="204" rx="16" fill="#f6f9fc" stroke="#d8e2f0"/><text x="589" y="40" text-anchor="middle" fill="#0d2d5c" font-family="Inter,system-ui,sans-serif" font-size="20" font-weight="700">CDR Bank Feed Data Flow</text><line x1="202" y1="118.0" x2="334" y2="118.0" stroke="#194291" stroke-width="2"/><path d="M334,113.0 L346,118.0 L334,123.0 Z" fill="#194291"/><line x1="520" y1="118.0" x2="652" y2="118.0" stroke="#194291" stroke-width="2"/><path d="M652,113.0 L664,118.0 L652,123.0 Z" fill="#194291"/><line x1="838" y1="118.0" x2="970" y2="118.0" stroke="#194291" stroke-width="2"/><path d="M970,113.0 L982,118.0 L970,123.0 Z" fill="#194291"/><rect x="28" y="70" width="168" height="96" rx="12" fill="#ffffff" stroke="#194291" stroke-width="2"/><text x="112" y="123" text-anchor="middle" fill="#0d2d5c" font-family="Inter,system-ui,sans-serif" font-size="16" font-weight="600">Account Holder</text><rect x="346" y="70" width="168" height="96" rx="12" fill="#ffffff" stroke="#194291" stroke-width="2"/><text x="430" y="112" text-anchor="middle" fill="#0d2d5c" font-family="Inter,system-ui,sans-serif" font-size="16" font-weight="600">Bank (Data</text><text x="430" y="134" text-anchor="middle" fill="#0d2d5c" font-family="Inter,system-ui,sans-serif" font-size="16" font-weight="600">Holder)</text><rect x="664" y="70" width="168" height="96" rx="12" fill="#ffffff" stroke="#194291" stroke-width="2"/><text x="748" y="112" text-anchor="middle" fill="#0d2d5c" font-family="Inter,system-ui,sans-serif" font-size="16" font-weight="600">Accredited</text><text x="748" y="134" text-anchor="middle" fill="#0d2d5c" font-family="Inter,system-ui,sans-serif" font-size="16" font-weight="600">Recipient</text><rect x="982" y="70" width="168" height="96" rx="12" fill="#ffffff" stroke="#194291" stroke-width="2"/><text x="1066" y="112" text-anchor="middle" fill="#0d2d5c" font-family="Inter,system-ui,sans-serif" font-size="16" font-weight="600">SAE Books</text><text x="1066" y="134" text-anchor="middle" fill="#0d2d5c" font-family="Inter,system-ui,sans-serif" font-size="16" font-weight="600">Ledger</text><text x="271" y="104" text-anchor="middle" fill="#194291" font-family="Inter,system-ui,sans-serif" font-size="12" font-weight="600">grants consent</text><text x="589" y="104" text-anchor="middle" fill="#194291" font-family="Inter,system-ui,sans-serif" font-size="12" font-weight="600">shares data via AP</text><text x="907" y="104" text-anchor="middle" fill="#194291" font-family="Inter,system-ui,sans-serif" font-size="12" font-weight="600">feeds transactions</text></svg>