<svg xmlns="http://www.w3.org/2000/svg" viewBox="0 0 1080 206" width="1080" height="206" role="img" aria-label="CDR Bank Feed Data Flow"><rect x="1" y="1" width="1078" height="204" rx="16" fill="#f6f9fc" stroke="#d8e2f0"/><text x="540" y="40" text-anchor="middle" fill="#0d2d5c" font-family="Inter,system-ui,sans-serif" font-size="20" font-weight="700">CDR Bank Feed Data Flow</text><line x1="204" y1="118.0" x2="302" y2="118.0" stroke="#194291" stroke-width="2"/><path d="M302,113.0 L314,118.0 L302,123.0 Z" fill="#194291"/><line x1="488" y1="118.0" x2="586" y2="118.0" stroke="#194291" stroke-width="2"/><path d="M586,113.0 L598,118.0 L586,123.0 Z" fill="#194291"/><line x1="772" y1="118.0" x2="870" y2="118.0" stroke="#194291" stroke-width="2"/><path d="M870,113.0 L882,118.0 L870,123.0 Z" fill="#194291"/><rect x="30" y="70" width="168" height="96" rx="12" fill="#ffffff" stroke="#194291" stroke-width="2"/><text x="114" y="123" text-anchor="middle" fill="#0d2d5c" font-family="Inter,system-ui,sans-serif" font-size="16" font-weight="600">Account Holder</text><rect x="314" y="70" width="168" height="96" rx="12" fill="#ffffff" stroke="#194291" stroke-width="2"/><text x="398" y="112" text-anchor="middle" fill="#0d2d5c" font-family="Inter,system-ui,sans-serif" font-size="16" font-weight="600">Bank (Data</text><text x="398" y="134" text-anchor="middle" fill="#0d2d5c" font-family="Inter,system-ui,sans-serif" font-size="16" font-weight="600">Holder)</text><rect x="598" y="70" width="168" height="96" rx="12" fill="#ffffff" stroke="#194291" stroke-width="2"/><text x="682" y="112" text-anchor="middle" fill="#0d2d5c" font-family="Inter,system-ui,sans-serif" font-size="16" font-weight="600">Accredited</text><text x="682" y="134" text-anchor="middle" fill="#0d2d5c" font-family="Inter,system-ui,sans-serif" font-size="16" font-weight="600">Recipient</text><rect x="882" y="70" width="168" height="96" rx="12" fill="#ffffff" stroke="#194291" stroke-width="2"/><text x="966" y="112" text-anchor="middle" fill="#0d2d5c" font-family="Inter,system-ui,sans-serif" font-size="16" font-weight="600">SAE Books</text><text x="966" y="134" text-anchor="middle" fill="#0d2d5c" font-family="Inter,system-ui,sans-serif" font-size="16" font-weight="600">Ledger</text><text x="256" y="104" text-anchor="middle" fill="#194291" font-family="Inter,system-ui,sans-serif" font-size="12.5" font-weight="600">grants consent</text><text x="540" y="104" text-anchor="middle" fill="#194291" font-family="Inter,system-ui,sans-serif" font-size="12.5" font-weight="600">shares data via AP</text><text x="824" y="104" text-anchor="middle" fill="#194291" font-family="Inter,system-ui,sans-serif" font-size="12.5" font-weight="600">feeds transactions</text></svg>