<svg xmlns="http://www.w3.org/2000/svg" viewBox="0 0 1200 420" width="1200" height="420" role="img" aria-label="Peppol e-Invoicing Explained for Australian Small Business"><defs><linearGradient id="bg" x1="0" y1="0" x2="1" y2="1"><stop offset="0" stop-color="#194291"/><stop offset="1" stop-color="#0d2d5c"/></linearGradient><pattern id="dg" width="28" height="28" patternUnits="userSpaceOnUse"><circle cx="2" cy="2" r="1.5" fill="#ffffff" opacity="0.06"/></pattern></defs><rect width="1200" height="420" fill="url(#bg)"/><rect width="1200" height="420" fill="url(#dg)"/><svg x="1050" y="56" width="88" height="88" viewBox="0 0 24 24" fill="none" stroke="#7aa7ff" stroke-width="1.6" stroke-linecap="round" stroke-linejoin="round" opacity="0.92"><path d="M5 3h14a2 2 0 0 1 2 2v14a2 2 0 0 1-2 2H5a2 2 0 0 1-2-2V5a2 2 0 0 1 2-2zM9 15l6-6M9 9h.01M15 15h.01"/></svg><text x="64" y="108" fill="#7aa7ff" font-family="Inter,system-ui,sans-serif" font-size="22" font-weight="700" letter-spacing="3">GUIDE</text><text font-family="Inter,system-ui,sans-serif" font-size="56" font-weight="800" fill="#eaf0fa" letter-spacing="-1"><tspan x="64" y="172">Peppol e-Invoicing</tspan><tspan x="64" y="235">Explained for Australian</tspan><tspan x="64" y="297">Small Business</tspan></text><rect x="64" y="368" width="76" height="6" rx="3" fill="#7aa7ff"/></svg>