<svg xmlns="http://www.w3.org/2000/svg" viewBox="0 0 720 574" width="720" height="574" role="img" aria-label="Peppol Four-Corner Invoice Flow" font-family="Inter,system-ui,-apple-system,sans-serif"><defs><linearGradient id="cbg" x1="0" y1="0" x2="0.3" y2="1"><stop offset="0" stop-color="#161e30"/><stop offset="1" stop-color="#0e1524"/></linearGradient><linearGradient id="bdg" x1="0" y1="0" x2="1" y2="1"><stop offset="0" stop-color="#2f5bb7"/><stop offset="1" stop-color="#0d2d5c"/></linearGradient><filter id="cardsh" x="-15%" y="-25%" width="130%" height="160%"><feDropShadow dx="0" dy="4" stdDeviation="9" flood-color="#000000" flood-opacity="0.55"/></filter><filter id="bsh" x="-50%" y="-50%" width="200%" height="200%"><feDropShadow dx="0" dy="3" stdDeviation="6" flood-color="#0d2d5c" flood-opacity="0.45"/></filter></defs><rect x="1" y="1" width="718" height="572" rx="22" fill="url(#cbg)" stroke="#2c3a59"/><text x="360" y="46" text-anchor="middle" fill="#eef1f7" font-size="20" font-weight="700" letter-spacing="-0.3">Peppol Four-Corner Invoice Flow</text><line x1="54" y1="116" x2="54" y2="506" stroke="#39496b" stroke-width="2.5"/><rect x="-9" y="167" width="126" height="28" rx="14" fill="#1e2a44" stroke="#34456a"/><text x="54" y="185" text-anchor="middle" fill="#9cc0ff" font-size="13" font-weight="600">submits invoice</text><rect x="-13" y="297" width="133" height="28" rx="14" fill="#1e2a44" stroke="#34456a"/><text x="54" y="315" text-anchor="middle" fill="#9cc0ff" font-size="13" font-weight="600">routes via Peppo</text><rect x="-13" y="427" width="133" height="28" rx="14" fill="#1e2a44" stroke="#34456a"/><text x="54" y="445" text-anchor="middle" fill="#9cc0ff" font-size="13" font-weight="600">delivers documen</text><rect x="100" y="78" width="590" height="76" rx="16" fill="#1b2740" stroke="#2c3a59" filter="url(#cardsh)"/><rect x="100" y="92" width="4" height="48" rx="2" fill="#3a5da8"/><circle cx="54" cy="116" r="21" fill="url(#bdg)" filter="url(#bsh)"/><text x="54" y="122" text-anchor="middle" fill="#ffffff" font-size="17" font-weight="700">1</text><text x="124" y="122" fill="#eef1f7" font-size="17" font-weight="600" letter-spacing="-0.2">Sender (SAE Books)</text><rect x="100" y="208" width="590" height="76" rx="16" fill="#1b2740" stroke="#2c3a59" filter="url(#cardsh)"/><rect x="100" y="222" width="4" height="48" rx="2" fill="#3a5da8"/><circle cx="54" cy="246" r="21" fill="url(#bdg)" filter="url(#bsh)"/><text x="54" y="252" text-anchor="middle" fill="#ffffff" font-size="17" font-weight="700">2</text><text x="124" y="252" fill="#eef1f7" font-size="17" font-weight="600" letter-spacing="-0.2">Sender Access Point</text><rect x="100" y="338" width="590" height="76" rx="16" fill="#1b2740" stroke="#2c3a59" filter="url(#cardsh)"/><rect x="100" y="352" width="4" height="48" rx="2" fill="#3a5da8"/><circle cx="54" cy="376" r="21" fill="url(#bdg)" filter="url(#bsh)"/><text x="54" y="382" text-anchor="middle" fill="#ffffff" font-size="17" font-weight="700">3</text><text x="124" y="382" fill="#eef1f7" font-size="17" font-weight="600" letter-spacing="-0.2">Receiver Access Point</text><rect x="100" y="468" width="590" height="76" rx="16" fill="#1b2740" stroke="#2c3a59" filter="url(#cardsh)"/><rect x="100" y="482" width="4" height="48" rx="2" fill="#3a5da8"/><circle cx="54" cy="506" r="21" fill="url(#bdg)" filter="url(#bsh)"/><text x="54" y="512" text-anchor="middle" fill="#ffffff" font-size="17" font-weight="700">4</text><text x="124" y="512" fill="#eef1f7" font-size="17" font-weight="600" letter-spacing="-0.2">Receiver's System</text></svg>