<svg xmlns="http://www.w3.org/2000/svg" viewBox="0 0 1139 206" width="1139" height="206" role="img" aria-label="Peppol Four-Corner Invoice Flow"><rect x="1" y="1" width="1137" height="204" rx="16" fill="#f6f9fc" stroke="#d8e2f0"/><text x="570" y="40" text-anchor="middle" fill="#0d2d5c" font-family="Inter,system-ui,sans-serif" font-size="20" font-weight="700">Peppol Four-Corner Invoice Flow</text><line x1="202" y1="118.0" x2="321" y2="118.0" stroke="#194291" stroke-width="2"/><path d="M321,113.0 L333,118.0 L321,123.0 Z" fill="#194291"/><line x1="507" y1="118.0" x2="626" y2="118.0" stroke="#194291" stroke-width="2"/><path d="M626,113.0 L638,118.0 L626,123.0 Z" fill="#194291"/><line x1="812" y1="118.0" x2="931" y2="118.0" stroke="#194291" stroke-width="2"/><path d="M931,113.0 L943,118.0 L931,123.0 Z" fill="#194291"/><rect x="28" y="70" width="168" height="96" rx="12" fill="#ffffff" stroke="#194291" stroke-width="2"/><text x="112" y="112" text-anchor="middle" fill="#0d2d5c" font-family="Inter,system-ui,sans-serif" font-size="16" font-weight="600">Sender (SAE</text><text x="112" y="134" text-anchor="middle" fill="#0d2d5c" font-family="Inter,system-ui,sans-serif" font-size="16" font-weight="600">Books)</text><rect x="333" y="70" width="168" height="96" rx="12" fill="#ffffff" stroke="#194291" stroke-width="2"/><text x="417" y="112" text-anchor="middle" fill="#0d2d5c" font-family="Inter,system-ui,sans-serif" font-size="16" font-weight="600">Sender Access</text><text x="417" y="134" text-anchor="middle" fill="#0d2d5c" font-family="Inter,system-ui,sans-serif" font-size="16" font-weight="600">Point</text><rect x="638" y="70" width="168" height="96" rx="12" fill="#ffffff" stroke="#194291" stroke-width="2"/><text x="722" y="112" text-anchor="middle" fill="#0d2d5c" font-family="Inter,system-ui,sans-serif" font-size="16" font-weight="600">Receiver Access</text><text x="722" y="134" text-anchor="middle" fill="#0d2d5c" font-family="Inter,system-ui,sans-serif" font-size="16" font-weight="600">Point</text><rect x="943" y="70" width="168" height="96" rx="12" fill="#ffffff" stroke="#194291" stroke-width="2"/><text x="1027" y="112" text-anchor="middle" fill="#0d2d5c" font-family="Inter,system-ui,sans-serif" font-size="16" font-weight="600">Receiver's</text><text x="1027" y="134" text-anchor="middle" fill="#0d2d5c" font-family="Inter,system-ui,sans-serif" font-size="16" font-weight="600">System</text><text x="264" y="104" text-anchor="middle" fill="#194291" font-family="Inter,system-ui,sans-serif" font-size="12" font-weight="600">submits invoice</text><text x="570" y="104" text-anchor="middle" fill="#194291" font-family="Inter,system-ui,sans-serif" font-size="12" font-weight="600">routes via Peppo</text><text x="874" y="104" text-anchor="middle" fill="#194291" font-family="Inter,system-ui,sans-serif" font-size="12" font-weight="600">delivers documen</text></svg>