<svg xmlns="http://www.w3.org/2000/svg" viewBox="0 0 1406 206" width="1406" height="206" role="img" aria-label="STP2 Pay Event to BAS Reconciliation"><rect x="1" y="1" width="1404" height="204" rx="16" fill="#f6f9fc" stroke="#d8e2f0"/><text x="703" y="40" text-anchor="middle" fill="#0d2d5c" font-family="Inter,system-ui,sans-serif" font-size="20" font-weight="700">STP2 Pay Event to BAS Reconciliation</text><line x1="184" y1="118.0" x2="316" y2="118.0" stroke="#194291" stroke-width="2"/><path d="M316,113.0 L328,118.0 L316,123.0 Z" fill="#194291"/><line x1="484" y1="118.0" x2="616" y2="118.0" stroke="#194291" stroke-width="2"/><path d="M616,113.0 L628,118.0 L616,123.0 Z" fill="#194291"/><line x1="784" y1="118.0" x2="916" y2="118.0" stroke="#194291" stroke-width="2"/><path d="M916,113.0 L928,118.0 L916,123.0 Z" fill="#194291"/><line x1="1084" y1="118.0" x2="1216" y2="118.0" stroke="#194291" stroke-width="2"/><path d="M1216,113.0 L1228,118.0 L1216,123.0 Z" fill="#194291"/><rect x="28" y="70" width="150" height="96" rx="12" fill="#ffffff" stroke="#194291" stroke-width="2"/><text x="103" y="123" text-anchor="middle" fill="#0d2d5c" font-family="Inter,system-ui,sans-serif" font-size="16" font-weight="600">Run payroll</text><rect x="328" y="70" width="150" height="96" rx="12" fill="#ffffff" stroke="#194291" stroke-width="2"/><text x="403" y="112" text-anchor="middle" fill="#0d2d5c" font-family="Inter,system-ui,sans-serif" font-size="16" font-weight="600">Lodge STP2</text><text x="403" y="134" text-anchor="middle" fill="#0d2d5c" font-family="Inter,system-ui,sans-serif" font-size="16" font-weight="600">report</text><rect x="628" y="70" width="150" height="96" rx="12" fill="#ffffff" stroke="#194291" stroke-width="2"/><text x="703" y="112" text-anchor="middle" fill="#0d2d5c" font-family="Inter,system-ui,sans-serif" font-size="16" font-weight="600">ATO records</text><text x="703" y="134" text-anchor="middle" fill="#0d2d5c" font-family="Inter,system-ui,sans-serif" font-size="16" font-weight="600">PAYG</text><rect x="928" y="70" width="150" height="96" rx="12" fill="#ffffff" stroke="#194291" stroke-width="2"/><text x="1003" y="123" text-anchor="middle" fill="#0d2d5c" font-family="Inter,system-ui,sans-serif" font-size="16" font-weight="600">Prepare BAS</text><rect x="1228" y="70" width="150" height="96" rx="12" fill="#ffffff" stroke="#194291" stroke-width="2"/><text x="1303" y="112" text-anchor="middle" fill="#0d2d5c" font-family="Inter,system-ui,sans-serif" font-size="16" font-weight="600">Reconcile W2</text><text x="1303" y="134" text-anchor="middle" fill="#0d2d5c" font-family="Inter,system-ui,sans-serif" font-size="16" font-weight="600">label</text><text x="253" y="104" text-anchor="middle" fill="#194291" font-family="Inter,system-ui,sans-serif" font-size="12" font-weight="600">triggers submissio</text><text x="553" y="104" text-anchor="middle" fill="#194291" font-family="Inter,system-ui,sans-serif" font-size="12" font-weight="600">ATO captures figur</text><text x="853" y="104" text-anchor="middle" fill="#194291" font-family="Inter,system-ui,sans-serif" font-size="12" font-weight="600">figures flow to BA</text><text x="1153" y="104" text-anchor="middle" fill="#194291" font-family="Inter,system-ui,sans-serif" font-size="12" font-weight="600">verify amounts mat</text></svg>