<svg xmlns="http://www.w3.org/2000/svg" viewBox="0 0 1360 206" width="1360" height="206" role="img" aria-label="STP2 Pay Event to BAS Reconciliation"><rect x="1" y="1" width="1358" height="204" rx="16" fill="#f6f9fc" stroke="#d8e2f0"/><text x="680" y="40" text-anchor="middle" fill="#0d2d5c" font-family="Inter,system-ui,sans-serif" font-size="20" font-weight="700">STP2 Pay Event to BAS Reconciliation</text><line x1="202" y1="118.0" x2="300" y2="118.0" stroke="#194291" stroke-width="2"/><path d="M300,113.0 L312,118.0 L300,123.0 Z" fill="#194291"/><line x1="486" y1="118.0" x2="584" y2="118.0" stroke="#194291" stroke-width="2"/><path d="M584,113.0 L596,118.0 L584,123.0 Z" fill="#194291"/><line x1="770" y1="118.0" x2="868" y2="118.0" stroke="#194291" stroke-width="2"/><path d="M868,113.0 L880,118.0 L868,123.0 Z" fill="#194291"/><line x1="1054" y1="118.0" x2="1152" y2="118.0" stroke="#194291" stroke-width="2"/><path d="M1152,113.0 L1164,118.0 L1152,123.0 Z" fill="#194291"/><rect x="28" y="70" width="168" height="96" rx="12" fill="#ffffff" stroke="#194291" stroke-width="2"/><text x="112" y="123" text-anchor="middle" fill="#0d2d5c" font-family="Inter,system-ui,sans-serif" font-size="16" font-weight="600">Run payroll</text><rect x="312" y="70" width="168" height="96" rx="12" fill="#ffffff" stroke="#194291" stroke-width="2"/><text x="396" y="112" text-anchor="middle" fill="#0d2d5c" font-family="Inter,system-ui,sans-serif" font-size="16" font-weight="600">Lodge STP2</text><text x="396" y="134" text-anchor="middle" fill="#0d2d5c" font-family="Inter,system-ui,sans-serif" font-size="16" font-weight="600">report</text><rect x="596" y="70" width="168" height="96" rx="12" fill="#ffffff" stroke="#194291" stroke-width="2"/><text x="680" y="112" text-anchor="middle" fill="#0d2d5c" font-family="Inter,system-ui,sans-serif" font-size="16" font-weight="600">ATO records</text><text x="680" y="134" text-anchor="middle" fill="#0d2d5c" font-family="Inter,system-ui,sans-serif" font-size="16" font-weight="600">PAYG</text><rect x="880" y="70" width="168" height="96" rx="12" fill="#ffffff" stroke="#194291" stroke-width="2"/><text x="964" y="123" text-anchor="middle" fill="#0d2d5c" font-family="Inter,system-ui,sans-serif" font-size="16" font-weight="600">Prepare BAS</text><rect x="1164" y="70" width="168" height="96" rx="12" fill="#ffffff" stroke="#194291" stroke-width="2"/><text x="1248" y="112" text-anchor="middle" fill="#0d2d5c" font-family="Inter,system-ui,sans-serif" font-size="16" font-weight="600">Reconcile W2</text><text x="1248" y="134" text-anchor="middle" fill="#0d2d5c" font-family="Inter,system-ui,sans-serif" font-size="16" font-weight="600">label</text><text x="254" y="104" text-anchor="middle" fill="#194291" font-family="Inter,system-ui,sans-serif" font-size="12.5" font-weight="600">triggers submissio</text><text x="538" y="104" text-anchor="middle" fill="#194291" font-family="Inter,system-ui,sans-serif" font-size="12.5" font-weight="600">ATO captures figur</text><text x="822" y="104" text-anchor="middle" fill="#194291" font-family="Inter,system-ui,sans-serif" font-size="12.5" font-weight="600">figures flow to BA</text><text x="1106" y="104" text-anchor="middle" fill="#194291" font-family="Inter,system-ui,sans-serif" font-size="12.5" font-weight="600">verify amounts mat</text></svg>