<svg xmlns="http://www.w3.org/2000/svg" viewBox="0 0 1188 206" width="1188" height="206" role="img" aria-label="STP2 Pay Event to BAS Reconciliation"><rect x="1" y="1" width="1186" height="204" rx="16" fill="#f6f9fc" stroke="#d8e2f0"/><text x="594" y="40" text-anchor="middle" fill="#0d2d5c" font-family="Inter,system-ui,sans-serif" font-size="20" font-weight="700">STP2 Pay Event to BAS Reconciliation</text><rect x="28" y="70" width="188" height="96" rx="12" fill="#ffffff" stroke="#194291" stroke-width="2"/><text x="122" y="123" text-anchor="middle" fill="#0d2d5c" font-family="Inter,system-ui,sans-serif" font-size="16" font-weight="600">Run payroll</text><line x1="216" y1="118.0" x2="254" y2="118.0" stroke="#194291" stroke-width="2"/><path d="M254,113.0 L264,118.0 L254,123.0 Z" fill="#194291"/><text x="240" y="106" text-anchor="middle" fill="#194291" font-family="Inter,system-ui,sans-serif" font-size="13" font-weight="600">triggers submissio</text><rect x="264" y="70" width="188" height="96" rx="12" fill="#ffffff" stroke="#194291" stroke-width="2"/><text x="358" y="123" text-anchor="middle" fill="#0d2d5c" font-family="Inter,system-ui,sans-serif" font-size="16" font-weight="600">Lodge STP2 report</text><line x1="452" y1="118.0" x2="490" y2="118.0" stroke="#194291" stroke-width="2"/><path d="M490,113.0 L500,118.0 L490,123.0 Z" fill="#194291"/><text x="476" y="106" text-anchor="middle" fill="#194291" font-family="Inter,system-ui,sans-serif" font-size="13" font-weight="600">ATO captures figur</text><rect x="500" y="70" width="188" height="96" rx="12" fill="#ffffff" stroke="#194291" stroke-width="2"/><text x="594" y="123" text-anchor="middle" fill="#0d2d5c" font-family="Inter,system-ui,sans-serif" font-size="16" font-weight="600">ATO records PAYG</text><line x1="688" y1="118.0" x2="726" y2="118.0" stroke="#194291" stroke-width="2"/><path d="M726,113.0 L736,118.0 L726,123.0 Z" fill="#194291"/><text x="712" y="106" text-anchor="middle" fill="#194291" font-family="Inter,system-ui,sans-serif" font-size="13" font-weight="600">figures flow to BA</text><rect x="736" y="70" width="188" height="96" rx="12" fill="#ffffff" stroke="#194291" stroke-width="2"/><text x="830" y="123" text-anchor="middle" fill="#0d2d5c" font-family="Inter,system-ui,sans-serif" font-size="16" font-weight="600">Prepare BAS</text><line x1="924" y1="118.0" x2="962" y2="118.0" stroke="#194291" stroke-width="2"/><path d="M962,113.0 L972,118.0 L962,123.0 Z" fill="#194291"/><text x="948" y="106" text-anchor="middle" fill="#194291" font-family="Inter,system-ui,sans-serif" font-size="13" font-weight="600">verify amounts mat</text><rect x="972" y="70" width="188" height="96" rx="12" fill="#ffffff" stroke="#194291" stroke-width="2"/><text x="1066" y="123" text-anchor="middle" fill="#0d2d5c" font-family="Inter,system-ui,sans-serif" font-size="16" font-weight="600">Reconcile W2 label</text></svg>